Coordinates
version=1
nRows=5
nColumns=46
inDegrees=yes

Units are S.I. units (second, meters, Newtons, ...)
Angles are in degrees.

endheader
time	pelvis_tilt	pelvis_list	pelvis_rotation	pelvis_tx	pelvis_ty	pelvis_tz	bb_angle	bb_tx	bb_ty	bb_tz	hip_flexion_r	hip_adduction_r	hip_rotation_r	knee_angle_r	knee_angle_r_beta	ankle_angle_r	subtalar_angle_r	mtp_angle_r	crank_angle_r	hip_flexion_l	hip_adduction_l	hip_rotation_l	knee_angle_l	knee_angle_l_beta	ankle_angle_l	subtalar_angle_l	mtp_angle_l	crank_angle_l	lumbar_extension	lumbar_bending	lumbar_rotation	arm_flex_r	arm_add_r	arm_rot_r	elbow_flex_r	pro_sup_r	wrist_flex_r	wrist_dev_r	arm_flex_l	arm_add_l	arm_rot_l	elbow_flex_l	pro_sup_l	wrist_flex_l	wrist_dev_l
      5.00500000	    -29.05720079	      9.56110595	      6.65284961	      0.33076605	      1.12971793	     -0.27890515	      0.00000000	      0.50000000	      0.00000000	      0.25000000	     33.43773600	    -16.36662014	     -4.15315137	     21.47807067	      0.37486305	    -15.87676490	     -2.95430860	      0.00000000	      0.00000000	     83.33693346	      4.05462277	     -1.87706589	    112.33131128	      1.96055123	    -11.95085429	     -0.54821390	      0.00000000	      0.00000000	    -56.48942765	     -7.77595833	     -2.22534802	     28.96933779	    -35.42090526	      1.98148898	     97.23263298	     50.68092784	      0.00000000	      0.00000000	     53.35298187	    -13.55334217	     30.58785579	     84.92589117	     51.32322425	      0.00000000	      0.00000000
      5.01000000	    -29.36727336	      9.48502928	      7.10285711	      0.33066113	      1.13084928	     -0.27694282	      0.00000000	      0.50000000	      0.00000000	      0.25000000	     32.76668177	    -16.51665461	     -4.60300964	     20.77304097	      0.36255796	    -16.97028887	     -1.81348516	      0.00000000	      0.00000000	     84.69452516	      4.02787513	     -1.83442582	    112.42920577	      1.96225982	    -11.86449717	     -0.41410506	      0.00000000	      0.00000000	    -56.48014602	     -7.93876740	     -2.48164361	     28.82706590	    -35.21507123	      1.88151703	     97.11472152	     50.65706620	      0.00000000	      0.00000000	     53.79977828	    -13.56052017	     30.64981637	     84.97621048	     51.33353763	      0.00000000	      0.00000000
      5.01500000	    -29.58950162	      9.39192216	      7.69912584	      0.33057591	      1.13248286	     -0.27535707	      0.00000000	      0.50000000	      0.00000000	      0.25000000	     32.04280295	    -16.71280484	     -5.08559447	     20.22746412	      0.35303585	    -18.01506311	     -0.77701893	      0.00000000	      0.00000000	     85.83801880	      4.19963872	     -1.78384813	    112.28626564	      1.95976504	    -11.81093939	     -0.38263335	      0.00000000	      0.00000000	    -56.58186164	     -7.89947754	     -2.74122182	     28.74963383	    -34.90824146	      1.68644435	     96.90913407	     50.60930785	      0.00000000	      0.00000000	     54.22023304	    -13.54535686	     30.86259347	     84.99269789	     51.35420134	      0.00000000	      0.00000000
      5.02000000	    -29.52776318	      9.40444706	      8.51281144	      0.33054617	      1.13490970	     -0.27415273	      0.00000000	      0.50000000	      0.00000000	      0.25000000	     31.07494160	    -17.14783315	     -5.94978317	     19.96609479	      0.34847409	    -18.83318562	      0.23918328	      0.00000000	      0.00000000	     86.52793840	      4.70604785	     -1.88024612	    111.88941484	      1.95283869	    -11.91852004	     -0.72138550	      0.00000000	      0.00000000	    -57.02396372	     -7.73157700	     -3.22460424	     28.87814063	    -33.91737123	      0.63335238	     96.26128070	     50.42294788	      0.00000000	      0.00000000	     55.11864075	    -13.83065082	     31.96341083	     84.67843194	     51.41346371	      0.00000000	      0.00000000
      5.02500000	    -29.76126484	      9.35327315	      9.05586285	      0.33013135	      1.13698279	     -0.27277409	      0.00000000	      0.50000000	      0.00000000	      0.25000000	     30.71847470	    -17.29770242	     -6.01904162	     20.04287798	      0.34981421	    -19.80906893	      0.39438349	      0.00000000	      0.00000000	     87.45356759	      5.10524948	     -1.82116722	    111.39964208	      1.94429054	    -11.81404970	     -0.86396533	      0.00000000	      0.00000000	    -57.20001504	     -7.71390975	     -3.48708207	     28.90950908	    -33.76266840	      0.52950739	     96.15041755	     50.39870627	      0.00000000	      0.00000000	     55.66074043	    -13.63348826	     32.08073957	     84.81380088	     51.44057080	      0.00000000	      0.00000000
